<?xml version="1.0" encoding="UTF-8"?> <svg xmlns="http://www.w3.org/2000/svg" id="Line" height="512" viewBox="0 0 64 64" width="512"><g fill="rgb(0,0,0)"><path d="m59 52.41113h-2.55713v-33.70019a.99973.99973 0 0 0 -1-1h-6.66846a.99974.99974 0 0 0 -1 1v33.70019h-4.7373v-25.3789a.99973.99973 0 0 0 -1-1h-6.66846a.99974.99974 0 0 0 -1 1v25.3789h-4.7373v-19.12695a.99974.99974 0 0 0 -1-1h-6.66846a.99974.99974 0 0 0 -1 1v19.127h-4.7373v-12.39946a.99974.99974 0 0 0 -1-1h-6.66846a.99973.99973 0 0 0 -1 1v12.39941h-2.55713a1.00013 1.00013 0 0 0 .00006 2c2.17656-.00236 53.99994 0 53.99994 0a1.00011 1.00011 0 0 0 0-2zm-49.44287 0v-11.39941h4.66846v11.39941zm13.40576 0v-18.12695h4.66846v18.127zm13.40576 0v-24.3789h4.66846v24.3789zm13.40576 0v-32.70019h4.66846v32.70019z"></path><path d="m16.81543 28.44336c11.92423-.98278 19.99135-9.12932 23.69573-13.89728l-.26555 2.03107a1.00036 1.00036 0 0 0 1.9834.2597l.7998-6.1181a.99833.99833 0 0 0 -.73431-1.07721 2.20874 2.20874 0 0 0 -.335-.04974l-6.15136.47949a1.00009 1.00009 0 1 0 .15527 1.99414l4.111-.32056c-2.79242 3.9325-10.8645 13.60675-23.34534 14.7024a1.0011 1.0011 0 0 0 .08636 1.99609z"></path></g></svg> 